HIERARCHY
ROOT joint_Root
{
	OFFSET 0.0 0.0 0.0
	CHANNELS 6 Xposition Yposition Zposition Zrotation Xrotation Yrotation 
	JOINT Hips
	{
		OFFSET 4.5925 91.4895 -427.239
		CHANNELS 6 Xposition Yposition Zposition Zrotation Xrotation Yrotation 
		JOINT Spine
		{
			OFFSET 15.7357 0.0 0.0
			CHANNELS 6 Xposition Yposition Zposition Zrotation Xrotation Yrotation 
			JOINT Chest
			{
				OFFSET 8.98455 -0.406207 0.0
				CHANNELS 6 Xposition Yposition Zposition Zrotation Xrotation Yrotation 
				JOINT Neck
				{
					OFFSET 16.3773 0.0 0.0
					CHANNELS 6 Xposition Yposition Zposition Zrotation Xrotation Yrotation 
					JOINT Head
					{
						OFFSET 6.45672 0.0 0.0
						CHANNELS 6 Xposition Yposition Zposition Zrotation Xrotation Yrotation 
						End Site
						{
							OFFSET 0.0 0.0 0.0
						}
					}
				}
				JOINT Shoulder_L
				{
					OFFSET 12.9942 -0.242716 4.98039
					CHANNELS 6 Xposition Yposition Zposition Zrotation Xrotation Yrotation 
					JOINT UpperArm_L
					{
						OFFSET 5.34809 0.0 0.0
						CHANNELS 6 Xposition Yposition Zposition Zrotation Xrotation Yrotation 
						JOINT LowerArm_L
						{
							OFFSET 24.3286 1.87007e-05 0.0
							CHANNELS 6 Xposition Yposition Zposition Zrotation Xrotation Yrotation 
							JOINT Hand_L
							{
								OFFSET 22.2916 0.0 0.0
								CHANNELS 6 Xposition Yposition Zposition Zrotation Xrotation Yrotation 
								End Site
								{
									OFFSET 0.0 0.0 0.0
								}
							}
						}
					}
				}
				JOINT Shoulder_R
				{
					OFFSET 12.9945 -0.242716 -4.98039
					CHANNELS 6 Xposition Yposition Zposition Zrotation Xrotation Yrotation 
					JOINT UpperArm_R
					{
						OFFSET -5.34813 0.0 0.0
						CHANNELS 6 Xposition Yposition Zposition Zrotation Xrotation Yrotation 
						JOINT LowerArm_R
						{
							OFFSET -24.3289 0.000322201 0.0
							CHANNELS 6 Xposition Yposition Zposition Zrotation Xrotation Yrotation 
							JOINT Hand_R
							{
								OFFSET -22.2915 -0.000108084 0.0
								CHANNELS 6 Xposition Yposition Zposition Zrotation Xrotation Yrotation 
								End Site
								{
									OFFSET 0.0 0.0 0.0
								}
							}
						}
					}
				}
			}
		}
		JOINT UpperLeg_L
		{
			OFFSET -2.19248 -6.46944 0.0
			CHANNELS 6 Xposition Yposition Zposition Zrotation Xrotation Yrotation 
			JOINT LowerLeg_L
			{
				OFFSET 39.0811 0.0 -1.23785e-05
				CHANNELS 6 Xposition Yposition Zposition Zrotation Xrotation Yrotation 
				JOINT Foot_L
				{
					OFFSET 40.9854 0.0 -1.26872e-05
					CHANNELS 6 Xposition Yposition Zposition Zrotation Xrotation Yrotation 
					JOINT Toes_L
					{
						OFFSET 11.7543 0.0 0.0
						CHANNELS 6 Xposition Yposition Zposition Zrotation Xrotation Yrotation 
						End Site
						{
							OFFSET 0.0 0.0 0.0
						}
					}
				}
			}
		}
		JOINT UpperLeg_R
		{
			OFFSET -2.19251 6.46944 0.0
			CHANNELS 6 Xposition Yposition Zposition Zrotation Xrotation Yrotation 
			JOINT LowerLeg_R
			{
				OFFSET -39.0811 -0.00228153 -0.0401928
				CHANNELS 6 Xposition Yposition Zposition Zrotation Xrotation Yrotation 
				JOINT Foot_R
				{
					OFFSET -40.9854 0.0 0.0
					CHANNELS 6 Xposition Yposition Zposition Zrotation Xrotation Yrotation 
					JOINT Toes_R
					{
						OFFSET -11.7543 0.0 0.0
						CHANNELS 6 Xposition Yposition Zposition Zrotation Xrotation Yrotation 
						End Site
						{
							OFFSET 0.0 0.0 0.0
						}
					}
				}
			}
		}
	}
}
MOTION
Frames:	4
Frame Time:	0.0333333
0.000000 0.000000 0.000000 0.000000 0.000000 -0.000000 -3.149510 87.777700 43.218400 -89.064800 6.461470 179.977000 15.735700 0.000005 -0.000001 106.833000 83.530800 -106.766000 8.984550 -0.406207 -0.000000 4.623790 3.738280 -0.015996 16.377300 -0.000001 -0.000001 -0.420261 -3.143250 2.711620 6.456720 -0.000001 -0.000000 -1.734190 -5.216050 0.791045 12.994200 -0.242716 4.980390 -90.869400 2.824300 -72.883200 5.348090 -0.000007 -0.000001 -75.769500 20.128700 25.614200 24.328600 0.000019 0.000005 2.343670 0.496073 -78.055400 22.291600 -0.000001 0.000005 10.877100 5.477070 -5.637920 12.994500 -0.242716 -4.980390 89.002500 7.070390 -81.948200 -5.348130 -0.000001 -0.000004 -53.843300 11.626000 -40.657000 -24.328900 0.000322 -0.000009 -14.903700 2.575560 -99.582300 -22.291500 -0.000108 -0.000004 27.001300 5.592110 -10.881500 -2.192480 -6.469440 -0.000000 179.779000 -10.317000 -31.271200 39.081100 -0.000007 -0.000012 -0.046028 0.051892 41.574300 40.985400 -0.000006 -0.000013 2.251880 1.220210 -60.851600 11.754300 -0.000000 0.000003 -0.000000 -0.000001 -16.577500 -2.192510 6.469440 -0.000001 173.308000 12.180700 170.238000 -39.081100 -0.002282 -0.040193 0.245997 -0.130914 61.668100 -40.985400 0.000008 0.000006 9.161970 2.481140 -49.794000 -11.754300 -0.000006 -0.000006 -0.070872 -0.365592 -31.714600
0.000000 0.000000 0.000000 0.000000 0.000000 -0.000000 -3.691050 86.364700 38.322200 -89.484400 6.596560 -178.869000 15.735700 0.000005 -0.000001 101.685000 83.282900 -101.834000 8.984550 -0.406207 -0.000000 5.398100 2.717810 -0.424497 16.377300 -0.000001 -0.000001 -0.552609 -2.858090 2.407810 6.456720 -0.000001 -0.000000 -1.710370 -4.541120 1.314000 12.994200 -0.242716 4.980390 -91.092700 3.643560 -73.293100 5.348090 -0.000007 -0.000001 -73.384000 20.121200 19.483200 24.328600 0.000019 0.000005 2.571550 0.495001 -79.110800 22.291600 -0.000001 0.000005 12.193100 5.473070 -5.490190 12.994500 -0.242716 -4.980390 88.898400 8.096760 -82.225400 -5.348130 -0.000001 -0.000004 -53.140900 15.024400 -35.965800 -24.328900 0.000322 -0.000009 -14.418400 2.011800 -97.774700 -22.291500 -0.000108 -0.000004 26.814000 5.598230 -11.237900 -2.192480 -6.469440 -0.000000 179.486000 -9.780450 -30.413300 39.081100 -0.000007 -0.000012 -0.164319 0.142125 49.143100 40.985400 -0.000006 -0.000013 2.333870 0.356570 -68.134600 11.754300 -0.000000 0.000003 -0.000079 -0.000841 -16.610000 -2.192510 6.469440 -0.000001 172.970000 10.486400 165.258000 -39.081100 -0.002282 -0.040193 0.280986 -0.089428 72.162100 -40.985400 0.000008 0.000006 9.461960 -1.641300 -45.185800 -11.754300 -0.000006 -0.000006 -0.012576 -0.121976 -21.546300
0.000000 0.000000 0.000000 0.000000 0.000000 -0.000000 -4.166970 85.409400 33.699100 -90.005700 6.841780 -178.260000 15.735700 0.000005 -0.000001 97.798900 83.170100 -98.207300 8.984550 -0.406207 -0.000000 5.776440 1.856000 -0.909528 16.377300 -0.000001 -0.000001 -0.448718 -2.656070 2.074170 6.456720 -0.000001 -0.000000 -1.477680 -3.781710 1.342570 12.994200 -0.242716 4.980390 -91.391500 4.764640 -73.698400 5.348090 -0.000007 -0.000001 -69.353900 20.729600 10.708800 24.328600 0.000019 0.000005 2.249650 0.390351 -80.164100 22.291600 -0.000001 0.000005 13.614900 5.465870 -5.220010 12.994500 -0.242716 -4.980390 88.716200 9.297970 -82.103500 -5.348130 -0.000001 -0.000004 -53.069000 19.389200 -30.132700 -24.328900 0.000322 -0.000009 -14.661600 1.009150 -93.851000 -22.291500 -0.000108 -0.000004 27.261300 5.604650 -11.622800 -2.192480 -6.469440 -0.000000 178.852000 -10.846900 -28.395500 39.081100 -0.000007 -0.000012 -0.237377 0.177113 53.273200 40.985400 -0.000006 -0.000013 2.899350 0.657010 -73.787000 11.754300 -0.000000 0.000003 -0.000378 -0.003155 -16.694100 -2.192510 6.469440 -0.000001 173.073000 9.346460 160.444000 -39.081100 -0.002282 -0.040193 0.234625 -0.042554 79.595000 -40.985400 0.000008 0.000006 10.456900 -3.360660 -50.844600 -11.754300 -0.000006 -0.000006 -0.013996 -0.131400 -21.932700
0.000000 0.000000 0.000000 0.000000 0.000000 -0.000000 -4.368510 84.989600 29.356800 -89.722400 6.527370 -177.883000 15.735700 0.000005 -0.000001 93.324900 83.074000 -93.675800 8.984550 -0.406207 -0.000000 6.065760 0.806416 -0.743785 16.377300 -0.000001 -0.000001 -0.281905 -2.482600 1.659860 6.456720 -0.000001 -0.000000 -1.150660 -3.148650 1.244350 12.994200 -0.242716 4.980390 -91.598300 5.599990 -74.042200 5.348090 -0.000007 -0.000001 -64.961900 20.575500 0.257260 24.328600 0.000019 0.000005 2.103200 0.315801 -81.467900 22.291600 -0.000001 0.000005 14.849900 5.462930 -5.108840 12.994500 -0.242716 -4.980390 88.482500 10.244600 -81.528300 -5.348130 -0.000001 -0.000004 -54.081500 23.848900 -23.402500 -24.328900 0.000322 -0.000009 -13.902900 -0.395491 -88.398200 -22.291500 -0.000108 -0.000004 27.388900 5.602920 -11.519300 -2.192480 -6.469440 -0.000000 179.291000 -11.154600 -25.336400 39.081100 -0.000007 -0.000012 -0.264431 0.185852 54.899800 40.985400 -0.000006 -0.000013 3.133270 0.883657 -78.053900 11.754300 -0.000000 0.000003 -0.000582 -0.004521 -16.741800 -2.192510 6.469440 -0.000001 174.461000 9.260170 155.845000 -39.081100 -0.002282 -0.040193 0.206042 -0.027109 82.405800 -40.985400 0.000008 0.000006 8.523130 -3.061520 -55.205500 -11.754300 -0.000006 -0.000006 -0.013907 -0.130824 -21.909100
